{
  "accessors": [
    {
      "bufferView": 2,
      "componentType": 5126,
      "count": 6654,
      "max": [
        2.7803308963775635,
        3.723189115524292,
        11.598411560058594
      ],
      "min": [
        -3.0531399250030518,
        -3.204643964767456,
        0.0
      ],
      "type": "VEC3"
    },
    {
      "bufferView": 2,
      "byteOffset": 79848,
      "componentType": 5126,
      "count": 6654,
      "max": [
        0.9998959898948669,
        0.9999241232872009,
        0.9996255040168762
      ],
      "min": [
        -0.9998857378959656,
        -0.9999763369560242,
        -0.9995958805084229
      ],
      "type": "VEC3"
    },
    {
      "bufferView": 1,
      "componentType": 5126,
      "count": 6654,
      "max": [
        1.0,
        1.0
      ],
      "min": [
        0.0,
        0.0
      ],
      "type": "VEC2"
    },
    {
      "bufferView": 0,
      "componentType": 5125,
      "count": 20505,
      "type": "SCALAR"
    },
    {
      "bufferView": 2,
      "byteOffset": 159696,
      "componentType": 5126,
      "count": 268,
      "max": [
        3.2230610847473145,
        4.071241855621338,
        11.68326473236084
      ],
      "min": [
        -3.66753888130188,
        -4.045967102050781,
        -0.0053820000030100346
      ],
      "type": "VEC3"
    },
    {
      "bufferView": 2,
      "byteOffset": 162912,
      "componentType": 5126,
      "count": 268,
      "max": [
        0.9953460097312927,
        0.9636693596839905,
        0.9628467559814453
      ],
      "min": [
        -0.9255270957946777,
        -0.9773834943771362,
        0.071492999792099
      ],
      "type": "VEC3"
    },
    {
      "bufferView": 1,
      "byteOffset": 53232,
      "componentType": 5126,
      "count": 268,
      "max": [
        1.0,
        1.0
      ],
      "min": [
        0.0,
        0.0
      ],
      "type": "VEC2"
    },
    {
      "bufferView": 0,
      "byteOffset": 82020,
      "componentType": 5125,
      "count": 402,
      "type": "SCALAR"
    },
    {
      "bufferView": 2,
      "byteOffset": 166128,
      "componentType": 5126,
      "count": 244,
      "max": [
        3.5312209129333496,
        5.1228508949279785,
        10.758688926696777
      ],
      "min": [
        -3.7691359519958496,
        -4.156252861022949,
        -0.2011989951133728
      ],
      "type": "VEC3"
    },
    {
      "bufferView": 2,
      "byteOffset": 169056,
      "componentType": 5126,
      "count": 244,
      "max": [
        0.9429734945297241,
        0.9953144788742065,
        0.980597734451294
      ],
      "min": [
        -0.9366050958633423,
        -0.9583521485328674,
        0.08228703588247299
      ],
      "type": "VEC3"
    },
    {
      "bufferView": 1,
      "byteOffset": 55376,
      "componentType": 5126,
      "count": 244,
      "max": [
        1.0,
        1.0
      ],
      "min": [
        0.0,
        0.0
      ],
      "type": "VEC2"
    },
    {
      "bufferView": 0,
      "byteOffset": 83628,
      "componentType": 5125,
      "count": 366,
      "type": "SCALAR"
    },
    {
      "bufferView": 2,
      "byteOffset": 171984,
      "componentType": 5126,
      "count": 284,
      "max": [
        3.6121931076049805,
        3.3000259399414063,
        11.047767639160156
      ],
      "min": [
        -4.161677837371826,
        -4.100142002105713,
        0.30918899178504944
      ],
      "type": "VEC3"
    },
    {
      "bufferView": 2,
      "byteOffset": 175392,
      "componentType": 5126,
      "count": 284,
      "max": [
        0.9234473705291748,
        0.9121242761611938,
        0.9484685063362122
      ],
      "min": [
        -0.9710835814476013,
        -0.9776687622070313,
        0.20002394914627075
      ],
      "type": "VEC3"
    },
    {
      "bufferView": 1,
      "byteOffset": 57328,
      "componentType": 5126,
      "count": 284,
      "max": [
        1.0,
        1.0
      ],
      "min": [
        0.0,
        0.0
      ],
      "type": "VEC2"
    },
    {
      "bufferView": 0,
      "byteOffset": 85092,
      "componentType": 5125,
      "count": 426,
      "type": "SCALAR"
    },
    {
      "bufferView": 2,
      "byteOffset": 178800,
      "componentType": 5126,
      "count": 240,
      "max": [
        3.2044899463653564,
        4.072154998779297,
        11.521631240844727
      ],
      "min": [
        -4.48728609085083,
        -3.3400719165802,
        -0.3697409927845001
      ],
      "type": "VEC3"
    },
    {
      "bufferView": 2,
      "byteOffset": 181680,
      "componentType": 5126,
      "count": 240,
      "max": [
        0.8794879913330078,
        0.9472846388816833,
        0.9599567651748657
      ],
      "min": [
        -0.9462698698043823,
        -0.9019908905029297,
        0.2432549148797989
      ],
      "type": "VEC3"
    },
    {
      "bufferView": 1,
      "byteOffset": 59600,
      "componentType": 5126,
      "count": 240,
      "max": [
        1.0,
        1.0
      ],
      "min": [
        0.0,
        0.0
      ],
      "type": "VEC2"
    },
    {
      "bufferView": 0,
      "byteOffset": 86796,
      "componentType": 5125,
      "count": 360,
      "type": "SCALAR"
    },
    {
      "bufferView": 2,
      "byteOffset": 184560,
      "componentType": 5126,
      "count": 260,
      "max": [
        4.109193801879883,
        2.818753957748413,
        10.686745643615723
      ],
      "min": [
        -4.595261096954346,
        -3.4764111042022705,
        -0.16588300466537476
      ],
      "type": "VEC3"
    },
    {
      "bufferView": 2,
      "byteOffset": 187680,
      "componentType": 5126,
      "count": 260,
      "max": [
        0.8692752718925476,
        0.9282957911491394,
        0.9417399764060974
      ],
      "min": [
        -0.9429811239242554,
        -0.8889002203941345,
        0.2583869397640228
      ],
      "type": "VEC3"
    },
    {
      "bufferView": 1,
      "byteOffset": 61520,
      "componentType": 5126,
      "count": 260,
      "max": [
        1.0,
        1.0
      ],
      "min": [
        0.0,
        0.0
      ],
      "type": "VEC2"
    },
    {
      "bufferView": 0,
      "byteOffset": 88236,
      "componentType": 5125,
      "count": 390,
      "type": "SCALAR"
    },
    {
      "bufferView": 2,
      "byteOffset": 190800,
      "componentType": 5126,
      "count": 232,
      "max": [
        3.7005910873413086,
        4.899767875671387,
        11.567157745361328
      ],
      "min": [
        -3.777108907699585,
        -3.9009768962860107,
        -0.18158000707626343
      ],
      "type": "VEC3"
    },
    {
      "bufferView": 2,
      "byteOffset": 193584,
      "componentType": 5126,
      "count": 232,
      "max": [
        0.9324519038200378,
        0.9732458591461182,
        0.9738894701004028
      ],
      "min": [
        -0.8903543949127197,
        -0.8252601623535156,
        0.22952896356582642
      ],
      "type": "VEC3"
    },
    {
      "bufferView": 1,
      "byteOffset": 63600,
      "componentType": 5126,
      "count": 232,
      "max": [
        1.0,
        1.0
      ],
      "min": [
        0.0,
        0.0
      ],
      "type": "VEC2"
    },
    {
      "bufferView": 0,
      "byteOffset": 89796,
      "componentType": 5125,
      "count": 348,
      "type": "SCALAR"
    },
    {
      "bufferView": 2,
      "byteOffset": 196368,
      "componentType": 5126,
      "count": 220,
      "max": [
        3.68205189704895,
        4.6984710693359375,
        11.699973106384277
      ],
      "min": [
        -4.2869791984558105,
        -4.231263160705566,
        -0.1939759999513626
      ],
      "type": "VEC3"
    },
    {
      "bufferView": 2,
      "byteOffset": 199008,
      "componentType": 5126,
      "count": 220,
      "max": [
        0.9004426002502441,
        0.8423005938529968,
        0.9511168599128723
      ],
      "min": [
        -0.965441107749939,
        -0.9059931039810181,
        0.2181040346622467
      ],
      "type": "VEC3"
    },
    {
      "bufferView": 1,
      "byteOffset": 65456,
      "componentType": 5126,
      "count": 220,
      "max": [
        1.0,
        1.0
      ],
      "min": [
        0.0,
        0.0
      ],
      "type": "VEC2"
    },
    {
      "bufferView": 0,
      "byteOffset": 91188,
      "componentType": 5125,
      "count": 330,
      "type": "SCALAR"
    }
  ],
  "asset": {
    "extras": {
      "author": "Sereib (https://sketchfab.com/Sereib)",
      "license": "CC-BY-4.0 (http://creativecommons.org/licenses/by/4.0/)",
      "source": "https://sketchfab.com/3d-models/conifer-medium-poly-38fb9cc46832422fb9bded278134ad83",
      "title": "Conifer (medium-Poly)"
    },
    "generator": "Sketchfab-16.12.0",
    "version": "2.0"
  },
  "bufferViews": [
    {
      "buffer": 0,
      "byteLength": 92508,
      "name": "floatBufferViews",
      "target": 34963
    },
    {
      "buffer": 0,
      "byteLength": 67216,
      "byteOffset": 92508,
      "byteStride": 8,
      "name": "floatBufferViews",
      "target": 34962
    },
    {
      "buffer": 0,
      "byteLength": 201648,
      "byteOffset": 159724,
      "byteStride": 12,
      "name": "floatBufferViews",
      "target": 34962
    }
  ],
  "buffers": [
    {
      "byteLength": 361372,
      "uri": "scene.bin"
    }
  ],
  "images": [
    {
      "uri": "textures/nature_bark_fir_02_l_0001.jpg_baseColor.jpeg"
    },
    {
      "uri": "textures/nature_leaves_thuja_01_l_0001.jpg_baseColor.png"
    },
    {
      "uri": "textures/nature_leaves_thuja_01_l_0002.jpg_baseColor.png"
    },
    {
      "uri": "textures/nature_leaves_thuja_01_l_0003.jpg_baseColor.png"
    },
    {
      "uri": "textures/nature_leaves_thuja_01_l_0004.jpg_baseColor.png"
    },
    {
      "uri": "textures/nature_leaves_thuja_01_l_0005.jpg_baseColor.png"
    },
    {
      "uri": "textures/nature_leaves_thuja_01_l_0006.jpg_baseColor.png"
    },
    {
      "uri": "textures/nature_leaves_thuja_01_l_0007.jpg_baseColor.png"
    }
  ],
  "materials": [
    {
      "doubleSided": true,
      "name": "nature_bark_fir_02_l_0001.jpg",
      "pbrMetallicRoughness": {
        "baseColorTexture": {
          "index": 0
        },
        "metallicFactor": 0.0,
        "roughnessFactor": 0.9
      }
    },
    {
      "alphaMode": "BLEND",
      "doubleSided": true,
      "name": "nature_leaves_thuja_01_l_0001.jpg",
      "pbrMetallicRoughness": {
        "baseColorTexture": {
          "index": 1
        },
        "metallicFactor": 0.0,
        "roughnessFactor": 0.9
      }
    },
    {
      "alphaMode": "BLEND",
      "doubleSided": true,
      "name": "nature_leaves_thuja_01_l_0002.jpg",
      "pbrMetallicRoughness": {
        "baseColorTexture": {
          "index": 2
        },
        "metallicFactor": 0.0,
        "roughnessFactor": 0.9
      }
    },
    {
      "alphaMode": "BLEND",
      "doubleSided": true,
      "name": "nature_leaves_thuja_01_l_0003.jpg",
      "pbrMetallicRoughness": {
        "baseColorTexture": {
          "index": 3
        },
        "metallicFactor": 0.0,
        "roughnessFactor": 0.9
      }
    },
    {
      "alphaMode": "BLEND",
      "doubleSided": true,
      "name": "nature_leaves_thuja_01_l_0004.jpg",
      "pbrMetallicRoughness": {
        "baseColorFactor": [
          0.6651241670186676,
          0.6651241670186676,
          0.6651241670186676,
          1.0
        ],
        "baseColorTexture": {
          "index": 4
        },
        "metallicFactor": 0.28685449857203205,
        "roughnessFactor": 0.49879268930820775
      }
    },
    {
      "alphaMode": "BLEND",
      "doubleSided": true,
      "name": "nature_leaves_thuja_01_l_0005.jpg",
      "pbrMetallicRoughness": {
        "baseColorTexture": {
          "index": 5
        },
        "metallicFactor": 0.0,
        "roughnessFactor": 0.9
      }
    },
    {
      "alphaMode": "BLEND",
      "doubleSided": true,
      "name": "nature_leaves_thuja_01_l_0006.jpg",
      "pbrMetallicRoughness": {
        "baseColorTexture": {
          "index": 6
        },
        "metallicFactor": 0.0,
        "roughnessFactor": 0.9
      }
    },
    {
      "alphaMode": "BLEND",
      "doubleSided": true,
      "name": "nature_leaves_thuja_01_l_0007.jpg",
      "pbrMetallicRoughness": {
        "baseColorTexture": {
          "index": 7
        },
        "metallicFactor": 0.0,
        "roughnessFactor": 0.9
      }
    }
  ],
  "meshes": [
    {
      "name": "Object_0",
      "primitives": [
        {
          "attributes": {
            "NORMAL": 1,
            "POSITION": 0,
            "TEXCOORD_0": 2
          },
          "indices": 3,
          "material": 0,
          "mode": 4
        }
      ]
    },
    {
      "name": "Object_1",
      "primitives": [
        {
          "attributes": {
            "NORMAL": 5,
            "POSITION": 4,
            "TEXCOORD_0": 6
          },
          "indices": 7,
          "material": 1,
          "mode": 4
        }
      ]
    },
    {
      "name": "Object_2",
      "primitives": [
        {
          "attributes": {
            "NORMAL": 9,
            "POSITION": 8,
            "TEXCOORD_0": 10
          },
          "indices": 11,
          "material": 2,
          "mode": 4
        }
      ]
    },
    {
      "name": "Object_3",
      "primitives": [
        {
          "attributes": {
            "NORMAL": 13,
            "POSITION": 12,
            "TEXCOORD_0": 14
          },
          "indices": 15,
          "material": 3,
          "mode": 4
        }
      ]
    },
    {
      "name": "Object_4",
      "primitives": [
        {
          "attributes": {
            "NORMAL": 17,
            "POSITION": 16,
            "TEXCOORD_0": 18
          },
          "indices": 19,
          "material": 4,
          "mode": 4
        }
      ]
    },
    {
      "name": "Object_5",
      "primitives": [
        {
          "attributes": {
            "NORMAL": 21,
            "POSITION": 20,
            "TEXCOORD_0": 22
          },
          "indices": 23,
          "material": 5,
          "mode": 4
        }
      ]
    },
    {
      "name": "Object_6",
      "primitives": [
        {
          "attributes": {
            "NORMAL": 25,
            "POSITION": 24,
            "TEXCOORD_0": 26
          },
          "indices": 27,
          "material": 6,
          "mode": 4
        }
      ]
    },
    {
      "name": "Object_7",
      "primitives": [
        {
          "attributes": {
            "NORMAL": 29,
            "POSITION": 28,
            "TEXCOORD_0": 30
          },
          "indices": 31,
          "material": 7,
          "mode": 4
        }
      ]
    }
  ],
  "nodes": [
    {
      "children": [
        1
      ],
      "matrix": [
        1.0,
        0.0,
        0.0,
        0.0,
        0.0,
        2.220446049250313e-16,
        -1.0,
        0.0,
        0.0,
        1.0,
        2.220446049250313e-16,
        0.0,
        0.0,
        0.0,
        0.0,
        1.0
      ],
      "name": "Sketchfab_model"
    },
    {
      "children": [
        2,
        3,
        4,
        5,
        6,
        7,
        8,
        9
      ],
      "name": "trees.obj.cleaner.materialmerger.gles"
    },
    {
      "mesh": 0,
      "name": "Object_2"
    },
    {
      "mesh": 1,
      "name": "Object_3"
    },
    {
      "mesh": 2,
      "name": "Object_4"
    },
    {
      "mesh": 3,
      "name": "Object_5"
    },
    {
      "mesh": 4,
      "name": "Object_6"
    },
    {
      "mesh": 5,
      "name": "Object_7"
    },
    {
      "mesh": 6,
      "name": "Object_8"
    },
    {
      "mesh": 7,
      "name": "Object_9"
    }
  ],
  "samplers": [
    {
      "magFilter": 9729,
      "minFilter": 9987,
      "wrapS": 10497,
      "wrapT": 10497
    }
  ],
  "scene": 0,
  "scenes": [
    {
      "name": "Sketchfab_Scene",
      "nodes": [
        0
      ]
    }
  ],
  "textures": [
    {
      "sampler": 0,
      "source": 0
    },
    {
      "sampler": 0,
      "source": 1
    },
    {
      "sampler": 0,
      "source": 2
    },
    {
      "sampler": 0,
      "source": 3
    },
    {
      "sampler": 0,
      "source": 4
    },
    {
      "sampler": 0,
      "source": 5
    },
    {
      "sampler": 0,
      "source": 6
    },
    {
      "sampler": 0,
      "source": 7
    }
  ]
}
